<svg width="24" height="24" viewBox="0 0 24 24" fill="none" xmlns="http://www.w3.org/2000/svg">
<g clip-path="url(#clip0_6545_653)">
<path d="M12 12.0088V6.51325M12 12.0088C18.0836 12.0088 23 7.07871 23 1.01767H17.5C17.5 4.03936 15.0241 6.51325 12 6.51325M12 12.0088V17.5044M12 12.0088C5.9164 12.0088 1 16.9213 1 23H6.5C6.5 19.943 8.9582 17.5044 12 17.5044M12 6.51325C8.97588 6.51325 6.5 8.98715 6.5 12.0088C6.5 12.4859 6.57074 12.9454 6.67685 13.3871V13.3695H1.08842C1.03537 12.91 1 12.4683 1 11.9912C1 5.94779 5.88103 1.03534 11.9293 1H12V6.51325ZM12 17.5044C15.0241 17.5044 17.5 15.0305 17.5 12.0088C17.5 11.5317 17.4293 11.0723 17.3232 10.6305H22.9116C22.9646 11.09 23 11.5317 23 12.0088C23 18.0522 18.119 22.9647 12.0707 23H12V17.5044Z" stroke="white" stroke-width="1.4" stroke-linecap="round" stroke-linejoin="round"/>
</g>
<defs>
<clipPath id="clip0_6545_653">
<rect width="24" height="24" fill="white"/>
</clipPath>
</defs>
</svg>
